<svg width="16" height="16" viewBox="0 0 16 16" fill="none" xmlns="http://www.w3.org/2000/svg">
<path d="M13.5 8.00003C13.5 6.41594 13.4991 5.27319 13.3938 4.40253C13.2896 3.54133 13.0904 3.02274 12.7497 2.64418C12.4158 2.27316 11.9692 2.06214 11.2179 1.94992C10.4465 1.83467 9.42986 1.83337 8 1.83337C6.57013 1.83337 5.55352 1.83467 4.78205 1.94992C4.03083 2.06214 3.58425 2.27315 3.25033 2.64418C2.90962 3.02274 2.71042 3.54133 2.60621 4.40253C2.50086 5.27319 2.5 6.41594 2.5 8.00003C2.5 9.58412 2.50086 10.7269 2.60621 11.5976C2.71042 12.4588 2.90962 12.9773 3.25031 13.3559L3.25033 13.3559C3.58425 13.7269 4.03084 13.9379 4.78205 14.0502C5.55352 14.1654 6.57013 14.1667 8 14.1667C9.42986 14.1667 10.4465 14.1654 11.2179 14.0502C11.9692 13.9379 12.4158 13.7269 12.7497 13.3559L12.7656 13.338C13.0966 12.9611 13.2912 12.4453 13.3938 11.5976C13.4991 10.7269 13.5 9.58412 13.5 8.00003ZM14.5 8.00003C14.5 9.55861 14.5009 10.7729 14.3865 11.7177C14.2711 12.6719 14.0309 13.4271 13.493 14.0248L13.493 14.0248C12.9482 14.6301 12.2484 14.9073 11.3657 15.0392C10.5033 15.168 9.39854 15.1667 8 15.1667C6.60145 15.1667 5.49673 15.168 4.63432 15.0392C3.76544 14.9094 3.0737 14.6388 2.53268 14.053L2.50703 14.0249C1.96906 13.4271 1.72892 12.6719 1.61346 11.7177C1.49914 10.7729 1.5 9.55861 1.5 8.00003C1.5 6.44144 1.49914 5.22716 1.61346 4.2824C1.72892 3.32818 1.96906 2.57295 2.50703 1.97521C3.05179 1.36992 3.75165 1.09275 4.63432 0.960894C5.49673 0.832063 6.60145 0.833375 8 0.833375C9.39854 0.833375 10.5033 0.832063 11.3657 0.960894C12.2484 1.09275 12.9482 1.36992 13.493 1.97521C14.0309 2.57295 14.2711 3.32819 14.3865 4.2824C14.5009 5.22716 14.5 6.44144 14.5 8.00003Z" fill="#3A78C2"/>
<path d="M10.8333 5.3333C10.8333 4.99117 10.829 4.91812 10.8163 4.87054C10.77 4.698 10.6353 4.56322 10.4627 4.51699H10.4627C10.4211 4.50585 10.36 4.50117 10.1162 4.50017L9.99998 4.49996H5.99998C5.6578 4.49996 5.58479 4.50425 5.53723 4.51699C5.36468 4.56322 5.22991 4.698 5.18367 4.87054C5.17093 4.9181 5.16664 4.99112 5.16664 5.3333C5.16664 5.67546 5.17093 5.74847 5.18367 5.79603C5.22991 5.96858 5.36468 6.10335 5.53723 6.14959C5.58479 6.16233 5.6578 6.16662 5.99998 6.16662H9.99998C10.3422 6.16662 10.4152 6.16232 10.4627 6.14959H10.4627C10.6353 6.10335 10.77 5.96858 10.8163 5.79603C10.829 5.74846 10.8333 5.6754 10.8333 5.3333ZM11.8333 5.3333C11.8333 5.6111 11.8376 5.84806 11.7822 6.05482V6.05486C11.6435 6.5725 11.2392 6.97683 10.7215 7.11552L10.7215 7.1155C10.5147 7.1709 10.2777 7.16662 9.99998 7.16662H5.99998C5.72218 7.16662 5.48519 7.17093 5.27842 7.11552C4.76078 6.97682 4.35646 6.5725 4.21776 6.05486C4.16235 5.84809 4.16664 5.6111 4.16664 5.3333C4.16664 5.0555 4.16235 4.81851 4.21776 4.61173C4.35646 4.09409 4.76078 3.68977 5.27842 3.55107C5.48519 3.49567 5.72218 3.49996 5.99998 3.49996L10.1022 3.49988C10.3365 3.49981 10.5406 3.50258 10.7215 3.55107L10.7215 3.55109C11.2311 3.68763 11.6308 4.08153 11.7755 4.58755L11.7822 4.61173C11.8376 4.8185 11.8333 5.05549 11.8333 5.3333Z" fill="#3A78C2"/>
<path d="M5.33335 9.33333C5.70154 9.33333 6.00002 9.03486 6.00002 8.66667C6.00002 8.29848 5.70154 8 5.33335 8C4.96516 8 4.66669 8.29848 4.66669 8.66667C4.66669 9.03486 4.96516 9.33333 5.33335 9.33333Z" fill="#3A78C2"/>
<path d="M5.33335 12C5.70154 12 6.00002 11.7015 6.00002 11.3333C6.00002 10.9651 5.70154 10.6666 5.33335 10.6666C4.96516 10.6666 4.66669 10.9651 4.66669 11.3333C4.66669 11.7015 4.96516 12 5.33335 12Z" fill="#3A78C2"/>
<path d="M7.99998 9.33333C8.36817 9.33333 8.66665 9.03486 8.66665 8.66667C8.66665 8.29848 8.36817 8 7.99998 8C7.63179 8 7.33331 8.29848 7.33331 8.66667C7.33331 9.03486 7.63179 9.33333 7.99998 9.33333Z" fill="#3A78C2"/>
<path d="M7.99998 12C8.36817 12 8.66665 11.7015 8.66665 11.3333C8.66665 10.9651 8.36817 10.6666 7.99998 10.6666C7.63179 10.6666 7.33331 10.9651 7.33331 11.3333C7.33331 11.7015 7.63179 12 7.99998 12Z" fill="#3A78C2"/>
<path d="M10.6667 9.33333C11.0349 9.33333 11.3333 9.03486 11.3333 8.66667C11.3333 8.29848 11.0349 8 10.6667 8C10.2985 8 10 8.29848 10 8.66667C10 9.03486 10.2985 9.33333 10.6667 9.33333Z" fill="#3A78C2"/>
<path d="M10.6667 12C11.0349 12 11.3333 11.7015 11.3333 11.3333C11.3333 10.9651 11.0349 10.6666 10.6667 10.6666C10.2985 10.6666 10 10.9651 10 11.3333C10 11.7015 10.2985 12 10.6667 12Z" fill="#3A78C2"/>
</svg>
