<svg width="121" height="121" viewBox="0 0 121 121" fill="none" xmlns="http://www.w3.org/2000/svg">
<circle cx="60" cy="61" r="52" fill="white"/>
<path d="M60.5 121C27.0832 121 0 93.9168 0 60.5C0 27.0832 27.0832 0 60.5 0C93.9168 0 121 27.0832 121 60.5C121 93.9168 93.9168 121 60.5 121ZM60.5 11.3438C33.3459 11.3438 11.3438 33.3459 11.3438 60.5C11.3438 87.6541 33.3459 109.656 60.5 109.656C87.6541 109.656 109.656 87.6541 109.656 60.5C109.656 33.3459 87.6541 11.3438 60.5 11.3438ZM77.2084 40.1521C79.0518 37.6234 82.5967 37.0563 85.1254 38.8996C87.6541 40.743 88.2213 44.2879 86.3779 46.8166L57.5223 86.5197C56.5533 87.8668 55.0408 88.7176 53.3865 88.8357C51.7322 88.9539 50.1016 88.3631 48.9436 87.2051L35.7328 73.9943C33.5113 71.7729 33.5113 68.1807 35.7328 65.9828C37.9543 63.785 41.5465 63.7613 43.7443 65.9828L52.2522 74.4906L77.2084 40.1758V40.1521Z" fill="#3DAF8A"/>
</svg>
